<svg xmlns="http://www.w3.org/2000/svg" viewBox="0 0 256 256" role="img" aria-labelledby="title">
  <title id="title">Gunlance icon</title>
  <defs><filter id="shadow" x="-20%" y="-20%" width="140%" height="140%"><feDropShadow dx="0" dy="6" stdDeviation="6" flood-color="#000" flood-opacity=".35"/></filter></defs>
  <g filter="url(#shadow)" stroke="#292929" stroke-width="10" stroke-linecap="round" stroke-linejoin="round">
    <path fill="#f3f2ee" d="M35 214L181 68l-18-18 53-23-23 53-18-18L29 208z"/>
    <path fill="#f3f2ee" d="M95 156l54-54 27 27-54 54z"/>
    <path fill="#f3f2ee" d="M61 91c31 4 56 18 72 41-9 41-33 68-72 82-39-14-63-41-72-82 16-23 41-37 72-41z" transform="translate(45 13) scale(.72)"/>
    <path fill="none" d="M134 111l28 28M107 160l36 36M191 45l22-22"/>
  </g>
</svg>
