<svg xmlns="http://www.w3.org/2000/svg" viewBox="0 0 256 256" role="img" aria-labelledby="title">
  <title id="title">Sword and Shield icon</title>
  <defs><filter id="shadow" x="-20%" y="-20%" width="140%" height="140%"><feDropShadow dx="0" dy="6" stdDeviation="6" flood-color="#000" flood-opacity=".35"/></filter></defs>
  <g filter="url(#shadow)" stroke="#292929" stroke-width="10" stroke-linecap="round" stroke-linejoin="round">
    <path fill="#f3f2ee" d="M74 205l84-84 18 18-84 84z"/>
    <path fill="#f3f2ee" d="M171 25l29 29-39 82-28-28z"/>
    <path fill="#f3f2ee" d="M69 83c30 4 56 18 73 41-10 45-34 74-73 88-39-14-63-43-73-88 17-23 43-37 73-41z" transform="translate(21 2) scale(.85)"/>
    <path fill="none" d="M80 93c20 6 36 18 46 35-8 26-22 45-46 57"/>
  </g>
</svg>
